<svg xmlns="http://www.w3.org/2000/svg" width="106" height="32" viewBox="0 0 381 100" fill="none">
<path d="M136.155 97.8026V34.832H149.373L149.648 45.2046L148.547 44.7456C149.771 41.1963 151.76 38.4731 154.513 36.576C157.267 34.679 160.48 33.7305 164.151 33.7305C168.741 33.7305 172.566 34.8626 175.626 37.1268C178.686 39.391 180.98 42.4814 182.51 46.398C184.102 50.2532 184.897 54.5981 184.897 59.4326C184.897 64.2058 184.102 68.5508 182.51 72.4673C180.98 76.3838 178.655 79.4744 175.534 81.7387C172.474 84.003 168.65 85.1351 164.06 85.1351C161.673 85.1351 159.439 84.706 157.359 83.8498C155.278 82.9317 153.473 81.6768 151.944 80.0862C150.475 78.4951 149.403 76.5979 148.731 74.3949L149.924 73.6606V97.8026H136.155ZM160.297 74.5786C163.54 74.5786 166.079 73.2323 167.915 70.5396C169.812 67.847 170.761 64.1447 170.761 59.4326C170.761 54.7206 169.812 51.0182 167.915 48.3255C166.079 45.633 163.54 44.2867 160.297 44.2867C158.154 44.2867 156.287 44.8681 154.697 46.0308C153.167 47.1322 151.974 48.8151 151.117 51.0794C150.321 53.3437 149.924 56.128 149.924 59.4326C149.924 62.7372 150.321 65.5216 151.117 67.7859C151.974 70.05 153.167 71.7635 154.697 72.9262C156.287 74.0278 158.154 74.5786 160.297 74.5786Z" fill="currentColor"/>
<path d="M191.6 97.8026V34.832H204.818L205.094 45.2046L203.992 44.7456C205.216 41.1963 207.205 38.4731 209.958 36.576C212.713 34.679 215.925 33.7305 219.597 33.7305C224.187 33.7305 228.012 34.8626 231.071 37.1268C234.131 39.391 236.425 42.4814 237.955 46.398C239.547 50.2532 240.342 54.5981 240.342 59.4326C240.342 64.2058 239.547 68.5508 237.955 72.4673C236.425 76.3838 234.1 79.4744 230.979 81.7387C227.919 84.003 224.095 85.1351 219.505 85.1351C217.118 85.1351 214.884 84.706 212.804 83.8498C210.723 82.9317 208.918 81.6768 207.389 80.0862C205.92 78.4951 204.848 76.5979 204.176 74.3949L205.369 73.6606V97.8026H191.6ZM215.742 74.5786C218.985 74.5786 221.524 73.2323 223.36 70.5396C225.257 67.847 226.206 64.1447 226.206 59.4326C226.206 54.7206 225.257 51.0182 223.36 48.3255C221.524 45.633 218.985 44.2867 215.742 44.2867C213.6 44.2867 211.734 44.8681 210.142 46.0308C208.612 47.1322 207.419 48.8151 206.562 51.0794C205.767 53.3437 205.369 56.128 205.369 59.4326C205.369 62.7372 205.767 65.5216 206.562 67.7859C207.419 70.05 208.612 71.7635 210.142 72.9262C211.734 74.0278 213.6 74.5786 215.742 74.5786Z" fill="currentColor"/>
<path d="M247.045 84.0368V18.8633H260.814V46.3096H258.979C259.468 43.4334 260.416 41.0773 261.824 39.2415C263.292 37.4056 265.098 36.0287 267.24 35.1107C269.443 34.1928 271.83 33.7339 274.4 33.7339C278.072 33.7339 281.132 34.5294 283.579 36.1205C286.027 37.7116 287.862 39.9147 289.087 42.7296C290.372 45.5446 291.014 48.7574 291.014 52.3679V84.0368H277.245V55.6725C277.245 52.0008 276.664 49.247 275.501 47.4111C274.4 45.5752 272.503 44.6573 269.81 44.6573C266.995 44.6573 264.792 45.6058 263.201 47.5029C261.609 49.3999 260.814 52.2456 260.814 56.0396V84.0368H247.045Z" fill="currentColor"/>
<path d="M313.46 84.0368C309.42 84.0368 306.268 83.0275 304.005 81.0077C301.741 78.9879 300.609 75.7141 300.609 71.1856V18.8633H314.377V69.7169C314.377 71.1856 314.714 72.2259 315.387 72.8378C316.06 73.4499 317.039 73.7558 318.324 73.7558H321.629V84.0368H313.46Z" fill="currentColor"/>
<path d="M323.112 84.0296L340.645 59.0616L323.571 34.8281H338.166L348.723 50.6166L358.911 34.8281H373.874L356.892 59.1534L374.333 84.0296H359.738L348.906 67.323L337.983 84.0296H323.112Z" fill="currentColor"/>
<path d="M67.5938 26.7114C55.5957 27.1251 45.0788 33.3334 41.3619 36.7512C39.4963 38.1184 34.5654 43.7143 32.1765 50.4225C27.947 62.2993 33.031 74.7744 38.115 81.909C41.9174 87.2455 52.9918 98.6833 68.7469 99.8952C81.5215 100.878 94.1638 94.8682 99.3366 90.4111C103.353 86.9507 113.606 77.0815 114.332 60.5477C115.058 44.0141 103.952 36.2732 97.8844 32.6498C91.9457 29.1038 84.9388 26.1132 67.5938 26.7114Z" fill="currentColor"/>
<path d="M84.3408 21.5351C84.0417 21.3642 84.6398 20.0684 84.9819 19.4844C93.0988 4.44606 101.687 0.259163 102.071 0.0883461C102.378 -0.0483703 102.651 -0.0204615 102.797 0.131049C115.743 14.1013 116.831 39.0992 116.17 40.974C115.959 41.5721 114.759 41.3584 114.46 40.6322C104.634 24.3548 84.7636 21.7768 84.3408 21.5351Z" fill="currentColor"/>
<path d="M45.2924 25.3406C45.1556 25.3406 44.2656 25.2774 42.9426 25.3406C21.4531 26.3659 12.9513 34.056 7.39736 38.9691C6.87211 39.4338 6.99865 39.9802 7.05562 40.208C10.2171 52.3841 22.9057 64.1328 24.3156 64.8591C25.4435 65.4401 25.6685 64.5031 25.6399 63.9619C24.3156 43.2414 33.7956 35.9413 37.6878 32.3898C41.1056 29.271 45.328 27.2901 45.805 26.6222C46.4459 25.7251 45.4633 25.3406 45.2924 25.3406Z" fill="currentColor"/>
<path d="M81.7775 82.7218C81.3336 82.4479 81.6495 81.81 81.7775 81.6537C87.6879 76.8402 99.4824 67.2903 100.063 66.5725C100.644 65.8547 100.875 65.8747 100.918 65.9744C102.053 68.6231 100.491 75.9288 97.4143 79.3464C94.338 82.7648 89.8524 83.3629 87.5452 83.3629C85.2379 83.3629 82.3336 83.0639 81.7775 82.7218Z" fill="#ff0000"/>
<path d="M44.3952 65.9248C43.9851 65.6856 43.8826 66.224 43.8826 66.523C43.669 68.061 43.5408 71.3507 45.3779 76.0074C47.215 80.6638 52.299 82.928 54.8623 83.2701C57.4256 83.6121 62.4672 83.0571 63.2363 82.7581C64.0054 82.459 63.8344 82.0309 63.5353 81.7749C63.2363 81.5189 44.9079 66.224 44.3952 65.9248Z" fill="#ff0000"/>
</svg>
